<svg xmlns="http://www.w3.org/2000/svg" xmlns:xlink="http://www.w3.org/1999/xlink" width="408" height="137" viewBox="0 0 408 137">
  <defs>
    <filter id="Rectangle_70" x="0" y="20" width="308" height="117" filterUnits="userSpaceOnUse">
      <feOffset dy="6" input="SourceAlpha"/>
      <feGaussianBlur stdDeviation="9" result="blur"/>
      <feFlood flood-opacity="0.4"/>
      <feComposite operator="in" in2="blur"/>
      <feComposite in="SourceGraphic"/>
    </filter>
    <linearGradient id="linear-gradient" y1="0.5" x2="1.16" y2="0.5" gradientUnits="objectBoundingBox">
      <stop offset="0" stop-color="#fff"/>
      <stop offset="1" stop-color="#f1f1f3"/>
    </linearGradient>
  </defs>
  <g id="Group_44" data-name="Group 44" transform="translate(-29 -215)">
    <g transform="matrix(1, 0, 0, 1, 29, 215)" filter="url(#Rectangle_70)">
      <rect id="Rectangle_70-2" data-name="Rectangle 70" width="254" height="63" transform="translate(27 41)" fill="#1dd59c"/>
    </g>
    <g id="Group_45" data-name="Group 45" transform="translate(0 -13.115)">
      <g id="Rectangle_112" data-name="Rectangle 112" transform="translate(241 228.115)" fill="#f1f1f3" stroke="#d2d2d9" stroke-width="1">
        <rect width="196" height="76" stroke="none"/>
        <rect x="0.5" y="0.5" width="195" height="75" fill="none"/>
      </g>
      <g id="Rectangle_113" data-name="Rectangle 113" transform="translate(241 228.115)" stroke="#d2d2d9" stroke-width="1" fill="url(#linear-gradient)">
        <rect width="196" height="28" stroke="none"/>
        <rect x="0.5" y="0.5" width="195" height="27" fill="none"/>
      </g>
      <text id="Shadows" transform="translate(253 246.115)" fill="#2b2b2b" font-size="14" font-family="Helvetica-Bold, Helvetica" font-weight="700"><tspan x="0" y="0">Shadows</tspan></text>
      <g id="Group_34" data-name="Group 34" transform="translate(414.372 237.061)">
        <line id="Line_57" data-name="Line 57" y2="9.665" transform="translate(4.833)" fill="none" stroke="#d2d2d9" stroke-width="1"/>
        <line id="Line_58" data-name="Line 58" x2="9.665" transform="translate(0 4.833)" fill="none" stroke="#d2d2d9" stroke-width="1"/>
      </g>
      <rect id="Rectangle_114" data-name="Rectangle 114" width="46" height="23" rx="4" transform="translate(253 268.115)" fill="#212121"/>
      <g id="Rectangle_115" data-name="Rectangle 115" transform="translate(309 270.115)" fill="#fff" stroke="#d2d2d9" stroke-width="1">
        <rect width="34" height="18" stroke="none"/>
        <rect x="0.5" y="0.5" width="33" height="17" fill="none"/>
      </g>
      <g id="Rectangle_116" data-name="Rectangle 116" transform="translate(350 270.115)" fill="#fff" stroke="#d2d2d9" stroke-width="1">
        <rect width="34" height="18" stroke="none"/>
        <rect x="0.5" y="0.5" width="33" height="17" fill="none"/>
      </g>
      <g id="Rectangle_117" data-name="Rectangle 117" transform="translate(390 270.115)" fill="#fff" stroke="#d2d2d9" stroke-width="1">
        <rect width="34" height="18" stroke="none"/>
        <rect x="0.5" y="0.5" width="33" height="17" fill="none"/>
      </g>
      <text id="_0" data-name="0" transform="translate(326 283.115)" fill="#2b2b2b" font-size="12" font-family="Helvetica"><tspan x="-3.337" y="0">0</tspan></text>
      <text id="_6" data-name="6" transform="translate(367 283.115)" fill="#2b2b2b" font-size="12" font-family="Helvetica"><tspan x="-3.337" y="0">6</tspan></text>
      <text id="_18" data-name="18" transform="translate(407 283.115)" fill="#2b2b2b" font-size="12" font-family="Helvetica"><tspan x="-6.674" y="0">18</tspan></text>
    </g>
  </g>
</svg>
