<?xml version="1.0" encoding="utf-8"?>
<!-- Generator: Adobe Illustrator 23.0.4, SVG Export Plug-In . SVG Version: 6.00 Build 0)  -->
<svg version="1.1" id="Laag_1" xmlns="http://www.w3.org/2000/svg" xmlns:xlink="http://www.w3.org/1999/xlink" x="0px" y="0px"
	 viewBox="0 0 93.2 200" style="enable-background:new 0 0 93.2 200;" xml:space="preserve">
<style type="text/css">
	.st0{fill:#1DD59C;}
	.st1{fill:#391DD5;}
</style>
<g>
	<path class="st0" d="M92.4,144.6c-0.4-1.8-0.8-3.6-1.4-5.4c-4-13.1-14.8-33.8-44.4-56.1c-29.6,22.2-40.4,43-44.4,56.1
		c-0.6,1.7-1,3.5-1.4,5.4c-1.1,5.6-0.8,8.8-0.8,8.8C0,179.2,20.9,200,46.6,200s46.6-20.9,46.6-46.6
		C93.2,153.4,93.5,150.2,92.4,144.6z"/>
	<path class="st1" d="M92.4,61.4c-0.4-1.8-0.8-3.6-1.4-5.4C87.1,43,76.2,22.2,46.6,0C17.1,22.2,6.2,43,2.2,56.1
		c-0.6,1.7-1,3.5-1.4,5.4C-0.3,67,0,70.2,0,70.2c0,25.7,20.9,46.6,46.6,46.6S93.2,96,93.2,70.2C93.2,70.2,93.5,67,92.4,61.4z"/>
</g>
</svg>
