<?xml version="1.0" encoding="utf-8"?>
<!-- Generator: Adobe Illustrator 23.0.4, SVG Export Plug-In . SVG Version: 6.00 Build 0)  -->
<svg version="1.1" id="Laag_1" xmlns="http://www.w3.org/2000/svg" xmlns:xlink="http://www.w3.org/1999/xlink" x="0px" y="0px"
	 viewBox="0 0 280 280" style="enable-background:new 0 0 280 280;" xml:space="preserve">
<style type="text/css">
	.st0{fill:#FFFFFF;}
	.st1{fill:#1DD59C;}
	.st2{fill:#391DD5;}
</style>
<g>
	<path class="st0" d="M219.9,280H60.1C26.91,280,0,253.09,0,219.9V60.1C0,26.91,26.91,0,60.1,0h159.8C253.09,0,280,26.91,280,60.1
		v159.8C280,253.09,253.09,280,219.9,280z"/>
	<path class="st1" d="M185.75,182.17c-0.35-1.83-0.8-3.62-1.36-5.36c-3.96-13.09-14.82-33.82-44.39-56.06
		c-29.57,22.24-40.43,42.98-44.39,56.06c-0.56,1.74-1.01,3.53-1.36,5.36c-1.13,5.58-0.84,8.81-0.84,8.81
		c0,25.73,20.86,46.59,46.59,46.59c25.73,0,46.59-20.86,46.59-46.59C186.59,190.97,186.87,187.74,185.75,182.17z"/>
	<path class="st2" d="M185.75,98.94c-0.35-1.83-0.8-3.62-1.36-5.36C180.43,80.5,169.57,59.76,140,37.52
		C110.43,59.76,99.57,80.5,95.61,93.59c-0.56,1.74-1.01,3.53-1.36,5.36c-1.13,5.58-0.84,8.81-0.84,8.81
		c0,25.73,20.86,46.59,46.59,46.59c25.73,0,46.59-20.86,46.59-46.59C186.59,107.75,186.87,104.52,185.75,98.94z"/>
</g>
</svg>
