<svg xmlns="http://www.w3.org/2000/svg" width="31.812" height="25.837" viewBox="0 0 31.812 25.837">
  <path id="twitter" d="M28.542,54.521c.02.283.02.565.02.848,0,8.619-6.56,18.55-18.55,18.55A18.424,18.424,0,0,1,0,70.992a13.488,13.488,0,0,0,1.574.081,13.057,13.057,0,0,0,8.094-2.786,6.531,6.531,0,0,1-6.1-4.522,8.223,8.223,0,0,0,1.231.1,6.9,6.9,0,0,0,1.716-.222,6.521,6.521,0,0,1-5.228-6.4v-.081a6.566,6.566,0,0,0,2.947.828,6.53,6.53,0,0,1-2.018-8.72A18.532,18.532,0,0,0,15.664,56.1,7.36,7.36,0,0,1,15.5,54.6a6.526,6.526,0,0,1,11.283-4.461,12.836,12.836,0,0,0,4.138-1.574,6.5,6.5,0,0,1-2.866,3.593,13.07,13.07,0,0,0,3.754-1.009A14.015,14.015,0,0,1,28.542,54.521Z" transform="translate(0 -48.082)" fill="#391dd5"/>
</svg>
